<svg width="64" height="50" viewBox="0 0 64 50" fill="none" xmlns="http://www.w3.org/2000/svg"><path fill-rule="evenodd" clip-rule="evenodd" d="M62.46 48.58v.13h.12l.07-.01.02-.05c0-.02 0-.04-.02-.05a.12.12 0 0 0-.07-.02h-.12Zm.12-.09c.06 0 .11.02.15.04.03.03.05.07.05.12 0 .04-.02.07-.04.1a.2.2 0 0 1-.12.04l.16.18h-.12l-.15-.18h-.05v.18h-.1v-.48h.22Zm-.03.65a.39.39 0 0 0 .29-.12.38.38 0 0 0 .08-.13c.02-.05.03-.1.03-.16 0-.05 0-.1-.03-.15a.4.4 0 0 0-.45-.24.41.41 0 0 0-.21.11.4.4 0 0 0 .29.69Zm0-.92a.52.52 0 0 1 .38.15l.11.16a.5.5 0 0 1-.11.57.52.52 0 0 1-.37.15.54.54 0 0 1-.5-.32.5.5 0 0 1 .2-.63c.1-.06.2-.08.3-.08h-.01Zm-48.78-1.85c0-.9.6-1.66 1.59-1.66.94 0 1.57.72 1.57 1.66 0 .95-.63 1.67-1.57 1.67-.99 0-1.59-.75-1.59-1.67Zm4.24 0v-2.6h-1.14v.64a1.98 1.98 0 0 0-1.65-.76 2.61 2.61 0 0 0-2.62 2.72c0 1.6 1.15 2.73 2.62 2.73a2 2 0 0 0 1.65-.76v.63h1.14v-2.6Zm38.41 0c0-.9.6-1.66 1.59-1.66.94 0 1.57.72 1.57 1.66 0 .95-.63 1.67-1.57 1.67-.99 0-1.59-.75-1.59-1.67Zm4.24 0V41.7h-1.14v2.72a1.98 1.98 0 0 0-1.65-.76 2.61 2.61 0 0 0-2.62 2.72c0 1.6 1.15 2.73 2.62 2.73a2 2 0 0 0 1.65-.76v.63h1.14v-2.61Zm-28.54-1.71c.73 0 1.2.45 1.32 1.26h-2.71c.12-.75.58-1.26 1.39-1.26Zm.02-1.01c-1.53 0-2.6 1.1-2.6 2.72 0 1.66 1.11 2.73 2.68 2.73.78 0 1.5-.2 2.14-.73l-.56-.83c-.44.34-1 .54-1.52.54-.73 0-1.4-.34-1.56-1.27h3.88l.02-.44c0-1.62-1.02-2.72-2.48-2.72Zm13.73 2.72c0-.9.6-1.66 1.58-1.66.94 0 1.58.72 1.58 1.66 0 .95-.64 1.67-1.58 1.67-.98 0-1.58-.75-1.58-1.67Zm4.23 0v-2.6h-1.14v.64c-.36-.47-.9-.76-1.65-.76-1.47 0-2.61 1.14-2.61 2.72 0 1.6 1.14 2.73 2.61 2.73a2 2 0 0 0 1.65-.76v.63h1.14v-2.6Zm-10.65 0c0 1.58 1.1 2.73 2.78 2.73.8 0 1.32-.17 1.89-.62l-.55-.91c-.43.3-.88.47-1.37.47-.9-.01-1.57-.67-1.57-1.67 0-1 .66-1.65 1.57-1.66.5 0 .94.16 1.37.47l.55-.91a2.75 2.75 0 0 0-1.89-.62c-1.68 0-2.78 1.15-2.78 2.72Zm14.65-2.72c-.65 0-1.08.3-1.37.76v-.63H51.6v5.2h1.14v-2.92c0-.86.37-1.34 1.11-1.34.23 0 .47.03.71.13l.36-1.05c-.25-.1-.58-.14-.8-.14l-.02-.01Zm-30.47.54a3.93 3.93 0 0 0-2.13-.54c-1.33 0-2.18.63-2.18 1.66 0 .85.63 1.37 1.8 1.53l.54.08c.62.08.92.25.92.54 0 .4-.42.63-1.2.63a2.8 2.8 0 0 1-1.73-.54l-.54.88c.66.46 1.45.7 2.26.67 1.51 0 2.39-.7 2.39-1.7 0-.9-.69-1.38-1.83-1.55l-.53-.07c-.5-.07-.89-.17-.89-.51 0-.38.37-.61 1-.61.66 0 1.3.25 1.63.44l.49-.91Zm14.67-.54c-.66 0-1.09.3-1.38.76v-.63h-1.13v5.2h1.14v-2.92c0-.86.37-1.34 1.12-1.34.23 0 .47.03.7.13l.36-1.06c-.26-.1-.58-.14-.81-.14Zm-9.7.13h-1.88V42.2h-1.14v1.58h-1.06v1.03h1.06v2.37c0 1.2.47 1.92 1.81 1.92.5 0 1.06-.15 1.42-.4l-.32-.97c-.34.2-.71.3-1.01.3-.57 0-.76-.35-.76-.87V44.8h1.86v-1.03l.02.01Zm-17 5.2V45.7c0-1.23-.8-2.05-2.06-2.06-.67-.01-1.36.2-1.84.92a1.92 1.92 0 0 0-1.73-.92c-.55 0-1.1.16-1.53.77v-.64H3.3v5.2h1.15v-2.89c0-.9.5-1.38 1.28-1.38.76 0 1.14.5 1.14 1.37v2.9h1.15v-2.89c0-.9.52-1.38 1.28-1.38.78 0 1.15.5 1.15 1.37v2.9h1.15v.01Z" fill="#363639"/><path fill-rule="evenodd" clip-rule="evenodd" d="M23.25 4.19h17.23v30.76H23.25V4.19Z" fill="#F47D20"/><path fill-rule="evenodd" clip-rule="evenodd" d="M24.34 19.57c0-6.24 2.95-11.8 7.53-15.38A19.69 19.69 0 0 0 19.7 0 19.63 19.63 0 0 0 0 19.57c0 10.8 8.82 19.56 19.7 19.56a19.7 19.7 0 0 0 12.17-4.18 19.49 19.49 0 0 1-7.53-15.38Z" fill="#DE1F31"/><path fill-rule="evenodd" clip-rule="evenodd" d="M63.12 31.7v-.77h-.2l-.24.52-.23-.52h-.2v.76h.14v-.57l.22.5h.15l.21-.5v.57h.14l.01.01Zm-1.27 0v-.64h.25v-.13h-.65v.13h.26v.63h.14v.01Zm1.88-12.13c0 10.8-8.82 19.56-19.7 19.56-4.59 0-8.81-1.56-12.16-4.18a19.49 19.49 0 0 0 0-30.76A19.69 19.69 0 0 1 44.04 0a19.63 19.63 0 0 1 19.69 19.57Z" fill="#F3A837"/></svg>