<svg width="91" height="22" viewBox="0 0 91 22" fill="none" xmlns="http://www.w3.org/2000/svg"><path fill-rule="evenodd" clip-rule="evenodd" d="M33.83 4.88h-5a.7.7 0 0 0-.7.58l-2.01 12.67a.4.4 0 0 0 .4.47h2.4a.7.7 0 0 0 .69-.58l.54-3.41a.7.7 0 0 1 .69-.58h1.58c3.3 0 5.2-1.58 5.7-4.7.23-1.37 0-2.44-.64-3.2-.7-.82-1.97-1.25-3.65-1.25Zm.58 4.62c-.27 1.78-1.64 1.78-2.97 1.78h-.76l.53-3.31c.03-.2.2-.35.42-.35h.34c.9 0 1.76 0 2.2.5.26.31.34.76.24 1.38Zm14.39-.05h-2.4c-.2 0-.38.15-.41.35l-.1.66-.17-.24c-.52-.75-1.68-1-2.84-1a5.49 5.49 0 0 0-5.35 4.76c-.23 1.39.1 2.72.9 3.64.73.85 1.77 1.2 3 1.2a4.6 4.6 0 0 0 3.33-1.35l-.1.66a.4.4 0 0 0 .4.47h2.17a.7.7 0 0 0 .68-.58l1.3-8.1a.41.41 0 0 0-.41-.47Zm-3.34 4.6a2.66 2.66 0 0 1-2.7 2.26c-.7 0-1.26-.22-1.62-.64a2 2 0 0 1-.37-1.66 2.67 2.67 0 0 1 2.68-2.28c.68 0 1.24.23 1.6.65.37.42.5 1.02.4 1.67Zm16.1-4.6h-2.4a.7.7 0 0 0-.58.3l-3.31 4.83-1.41-4.64a.7.7 0 0 0-.67-.5h-2.36a.41.41 0 0 0-.4.55l2.65 7.69-2.5 3.48c-.2.27 0 .65.35.65h2.4a.7.7 0 0 0 .58-.3l8-11.42a.4.4 0 0 0-.33-.64h-.01Z" fill="#253B80"/><path fill-rule="evenodd" clip-rule="evenodd" d="M69.54 4.88h-5a.7.7 0 0 0-.7.58l-2.02 12.67c-.04.25.16.47.42.47h2.56c.24 0 .45-.17.48-.4l.58-3.6a.7.7 0 0 1 .69-.57h1.58c3.3 0 5.2-1.58 5.7-4.7.22-1.37 0-2.44-.64-3.2-.71-.82-1.97-1.25-3.65-1.25Zm.58 4.62c-.27 1.78-1.65 1.78-2.97 1.78h-.76l.53-3.31c.03-.2.2-.35.4-.35h.36c.9 0 1.76 0 2.2.5.26.31.34.76.24 1.38Zm14.39-.05h-2.4c-.2 0-.38.15-.41.35l-.1.66-.18-.24c-.51-.75-1.67-1-2.83-1a5.49 5.49 0 0 0-5.35 4.76c-.23 1.39.1 2.72.9 3.64.73.85 1.77 1.2 3 1.2 2.15 0 3.33-1.35 3.33-1.35l-.1.66a.4.4 0 0 0 .4.47h2.17a.7.7 0 0 0 .68-.58l1.3-8.1a.4.4 0 0 0-.41-.47Zm-3.35 4.6a2.66 2.66 0 0 1-2.7 2.26c-.7 0-1.25-.22-1.61-.64a2 2 0 0 1-.38-1.66 2.67 2.67 0 0 1 2.69-2.28c.68 0 1.23.23 1.6.65.37.42.5 1.02.4 1.67Zm6.17-8.83-2.05 12.9a.4.4 0 0 0 .4.48h2.07a.7.7 0 0 0 .7-.58l2.02-12.67a.4.4 0 0 0-.41-.47h-2.32c-.2 0-.38.14-.4.34h-.01Z" fill="#179BD7"/><path fill-rule="evenodd" clip-rule="evenodd" d="m5.33 21.07.38-2.4-.85-.02H.76L3.6.93a.23.23 0 0 1 .23-.19h6.87c2.28 0 3.85.47 4.67 1.4.39.43.63.88.75 1.38.13.52.13 1.15 0 1.9v.56l.38.2a2.6 2.6 0 0 1 1.42 2c.09.57.06 1.25-.1 2.03a7.1 7.1 0 0 1-.84 2.3 4.75 4.75 0 0 1-3.13 2.24c-.67.17-1.42.26-2.25.26h-.54a1.6 1.6 0 0 0-1.6 1.34l-.02.21-.68 4.24-.03.15-.04.1a.11.11 0 0 1-.07.02h-3.3Z" fill="#253B80"/><path fill-rule="evenodd" clip-rule="evenodd" d="m16.87 5.54-.06.4c-.9 4.59-4 6.17-7.96 6.17H6.83a.97.97 0 0 0-.96.82l-1.03 6.46-.3 1.83c-.05.3.2.59.5.59h3.59c.42 0 .78-.3.84-.72l.04-.18.67-4.21.05-.23a.86.86 0 0 1 .84-.72h.54c3.46 0 6.17-1.39 6.96-5.4.33-1.68.16-3.08-.71-4.07-.27-.3-.6-.54-.98-.74h-.01Z" fill="#179BD7"/><path fill-rule="evenodd" clip-rule="evenodd" d="M15.93 5.17a7.22 7.22 0 0 0-.88-.2c-.54-.08-1.14-.12-1.77-.12h-5.4a.86.86 0 0 0-.83.71L5.9 12.72l-.03.21a.97.97 0 0 1 .96-.82h2.02c3.96 0 7.05-1.58 7.96-6.17l.07-.4c-.3-.16-.63-.28-.95-.37Z" fill="#222D65"/><path fill-rule="evenodd" clip-rule="evenodd" d="M7.05 5.56a.85.85 0 0 1 .84-.71h5.39c.89 0 1.78.1 2.65.32l.2.06c.27.09.52.2.75.31.27-1.7 0-2.85-.93-3.9C14.92.49 13.08 0 10.7 0H3.84c-.48 0-.9.35-.97.82L0 18.72a.6.6 0 0 0 .59.67h4.24l1.06-6.67 1.15-7.16Z" fill="#253B80"/></svg>