<svg width="101" height="33" viewBox="0 0 101 33" fill="none" xmlns="http://www.w3.org/2000/svg"><path fill-rule="evenodd" clip-rule="evenodd" d="m50 .7-6.74 31.8H35.1L41.85.7H50Zm34.34 20.53 4.3-11.94 2.47 11.94h-6.77Zm9.11 11.27H101L94.41.7h-6.96a3.7 3.7 0 0 0-3.48 2.33L71.73 32.5h8.56l1.7-4.75h10.48l.98 4.75Zm-21.3-10.38c.04-8.4-11.51-8.86-11.43-12.61.02-1.14 1.1-2.35 3.46-2.66a15.3 15.3 0 0 1 8.04 1.42l1.44-6.75a21.77 21.77 0 0 0-7.64-1.4c-8.06 0-13.74 4.32-13.79 10.5-.05 4.59 4.05 7.14 7.15 8.66 3.18 1.56 4.24 2.56 4.23 3.96-.02 2.13-2.54 3.07-4.88 3.11-4.1.06-6.49-1.12-8.39-2l-1.47 6.96c1.9.88 5.42 1.65 9.07 1.69 8.58 0 14.18-4.27 14.21-10.88ZM38.35.7 25.12 32.5H16.5L9.99 7.12c-.4-1.56-.74-2.14-1.94-2.8C6.1 3.25 2.85 2.24 0 1.62L.2.7h13.88a3.81 3.81 0 0 1 3.76 3.24l3.44 18.4L29.78.7h8.57Z" fill="url(#a)"/><defs><linearGradient id="a" x1="0" y1="16.56" x2="101" y2="16.56" gradientUnits="userSpaceOnUse"><stop stop-color="#231E5D"/><stop offset="1" stop-color="#074EA2"/></linearGradient></defs></svg>